<svg xmlns="http://www.w3.org/2000/svg" width="404.0" height="770.0"><rect width="404.0" height="770.0" fill="#101418"/><path d="M 40.0 730.0 L 40.0 202.0 A 162.0 162.0 0 0 1 364.0 202.0 L 364.0 730.0" fill="none" stroke="#8a94a0" stroke-width="2"/><path d="M 40.9 730.0 L 40.9 202.0 A 161.10000000000002 161.10000000000002 0 0 1 196.0 42.099999999999966 L 196.0 730.0 Z" fill="none" stroke="#c9a227" stroke-width="2"/><path d="M 54.4 202.0 A 147.60000000000002 147.60000000000002 0 0 1 196.0 56.5" fill="none" stroke="#c9a227" stroke-width="1.5"/><rect x="40.9" y="703.0" width="155.10000000000002" height="27.0" fill="#2a323b" stroke="#c9a227" stroke-width="1"/><rect x="40.9" y="457.0" width="155.10000000000002" height="18.0" fill="#2a323b" stroke="#c9a227" stroke-width="1"/><line x1="52.0" y1="696.6666666666666" x2="196.0" y2="696.6666666666666" stroke="#7a6a45" stroke-width="3"/><line x1="52.0" y1="684.0" x2="196.0" y2="684.0" stroke="#7a6a45" stroke-width="3"/><line x1="52.0" y1="671.3333333333334" x2="196.0" y2="671.3333333333334" stroke="#7a6a45" stroke-width="3"/><line x1="52.0" y1="658.6666666666667" x2="196.0" y2="658.6666666666667" stroke="#7a6a45" stroke-width="3"/><line x1="52.0" y1="646.0" x2="196.0" y2="646.0" stroke="#7a6a45" stroke-width="3"/><line x1="52.0" y1="633.3333333333333" x2="196.0" y2="633.3333333333333" stroke="#7a6a45" stroke-width="3"/><line x1="52.0" y1="620.6666666666666" x2="196.0" y2="620.6666666666666" stroke="#7a6a45" stroke-width="3"/><line x1="52.0" y1="608.0" x2="196.0" y2="608.0" stroke="#7a6a45" stroke-width="3"/><line x1="52.0" y1="595.3333333333334" x2="196.0" y2="595.3333333333334" stroke="#7a6a45" stroke-width="3"/><line x1="52.0" y1="582.6666666666666" x2="196.0" y2="582.6666666666666" stroke="#7a6a45" stroke-width="3"/><line x1="52.0" y1="570.0" x2="196.0" y2="570.0" stroke="#7a6a45" stroke-width="3"/><line x1="52.0" y1="557.3333333333334" x2="196.0" y2="557.3333333333334" stroke="#7a6a45" stroke-width="3"/><line x1="52.0" y1="544.6666666666667" x2="196.0" y2="544.6666666666667" stroke="#7a6a45" stroke-width="3"/><line x1="52.0" y1="532.0" x2="196.0" y2="532.0" stroke="#7a6a45" stroke-width="3"/><line x1="52.0" y1="519.3333333333333" x2="196.0" y2="519.3333333333333" stroke="#7a6a45" stroke-width="3"/><line x1="52.0" y1="506.66666666666663" x2="196.0" y2="506.66666666666663" stroke="#7a6a45" stroke-width="3"/><line x1="52.0" y1="493.99999999999994" x2="196.0" y2="493.99999999999994" stroke="#7a6a45" stroke-width="3"/><line x1="52.0" y1="481.33333333333337" x2="196.0" y2="481.33333333333337" stroke="#7a6a45" stroke-width="3"/><line x1="52.0" y1="450.625" x2="196.0" y2="450.625" stroke="#7a6a45" stroke-width="3"/><line x1="52.0" y1="437.875" x2="196.0" y2="437.875" stroke="#7a6a45" stroke-width="3"/><line x1="52.0" y1="425.125" x2="196.0" y2="425.125" stroke="#7a6a45" stroke-width="3"/><line x1="52.0" y1="412.375" x2="196.0" y2="412.375" stroke="#7a6a45" stroke-width="3"/><line x1="52.0" y1="399.625" x2="196.0" y2="399.625" stroke="#7a6a45" stroke-width="3"/><line x1="52.0" y1="386.875" x2="196.0" y2="386.875" stroke="#7a6a45" stroke-width="3"/><line x1="52.0" y1="374.125" x2="196.0" y2="374.125" stroke="#7a6a45" stroke-width="3"/><line x1="52.0" y1="361.375" x2="196.0" y2="361.375" stroke="#7a6a45" stroke-width="3"/><line x1="52.0" y1="348.625" x2="196.0" y2="348.625" stroke="#7a6a45" stroke-width="3"/><line x1="52.0" y1="335.875" x2="196.0" y2="335.875" stroke="#7a6a45" stroke-width="3"/><line x1="52.0" y1="323.125" x2="196.0" y2="323.125" stroke="#7a6a45" stroke-width="3"/><line x1="52.0" y1="310.375" x2="196.0" y2="310.375" stroke="#7a6a45" stroke-width="3"/><line x1="52.0" y1="297.625" x2="196.0" y2="297.625" stroke="#7a6a45" stroke-width="3"/><line x1="52.0" y1="284.875" x2="196.0" y2="284.875" stroke="#7a6a45" stroke-width="3"/><line x1="52.0" y1="272.125" x2="196.0" y2="272.125" stroke="#7a6a45" stroke-width="3"/><line x1="52.0" y1="259.375" x2="196.0" y2="259.375" stroke="#7a6a45" stroke-width="3"/><line x1="52.0" y1="246.625" x2="196.0" y2="246.625" stroke="#7a6a45" stroke-width="3"/><line x1="52.0" y1="233.875" x2="196.0" y2="233.875" stroke="#7a6a45" stroke-width="3"/><line x1="52.0" y1="221.125" x2="196.0" y2="221.125" stroke="#7a6a45" stroke-width="3"/><line x1="52.0" y1="208.375" x2="196.0" y2="208.375" stroke="#7a6a45" stroke-width="3"/><line x1="54.5111492412155" y1="196.0" x2="196.0" y2="196.0" stroke="#7a6a45" stroke-width="3"/><line x1="55.44547420156214" y1="183.625" x2="196.0" y2="183.625" stroke="#7a6a45" stroke-width="3"/><line x1="57.34517454663629" y1="171.25" x2="196.0" y2="171.25" stroke="#7a6a45" stroke-width="3"/><line x1="60.245479172071356" y1="158.875" x2="196.0" y2="158.875" stroke="#7a6a45" stroke-width="3"/><line x1="64.20358085684144" y1="146.5" x2="196.0" y2="146.5" stroke="#7a6a45" stroke-width="3"/><line x1="69.30484584800219" y1="134.125" x2="196.0" y2="134.125" stroke="#7a6a45" stroke-width="3"/><line x1="75.67353660380718" y1="121.75" x2="196.0" y2="121.75" stroke="#7a6a45" stroke-width="3"/><line x1="83.49172570904399" y1="109.375" x2="196.0" y2="109.375" stroke="#7a6a45" stroke-width="3"/><line x1="93.03468883028746" y1="97.0" x2="196.0" y2="97.0" stroke="#7a6a45" stroke-width="3"/><line x1="104.74378935768956" y1="84.625" x2="196.0" y2="84.625" stroke="#7a6a45" stroke-width="3"/><line x1="119.40032216548344" y1="72.25" x2="196.0" y2="72.25" stroke="#7a6a45" stroke-width="3"/><line x1="138.6537179345533" y1="59.875" x2="196.0" y2="59.875" stroke="#7a6a45" stroke-width="3"/><line x1="167.67885469326484" y1="47.5" x2="196.0" y2="47.5" stroke="#7a6a45" stroke-width="3"/><line x1="193.60000000000002" y1="703.0" x2="193.60000000000002" y2="47.125" stroke="#c9a227" stroke-width="1" stroke-dasharray="3 3"/><path d="M 363.1 730.0 L 363.1 202.0 A 161.10000000000002 161.10000000000002 0 0 0 208.0 42.099999999999966 L 208.0 730.0 Z" fill="none" stroke="#c9a227" stroke-width="2"/><path d="M 349.6 202.0 A 147.60000000000002 147.60000000000002 0 0 0 208.0 56.5" fill="none" stroke="#c9a227" stroke-width="1.5"/><rect x="208.0" y="703.0" width="155.10000000000002" height="27.0" fill="#2a323b" stroke="#c9a227" stroke-width="1"/><rect x="208.0" y="457.0" width="155.10000000000002" height="18.0" fill="#2a323b" stroke="#c9a227" stroke-width="1"/><line x1="352.0" y1="696.6666666666666" x2="208.0" y2="696.6666666666666" stroke="#7a6a45" stroke-width="3"/><line x1="352.0" y1="684.0" x2="208.0" y2="684.0" stroke="#7a6a45" stroke-width="3"/><line x1="352.0" y1="671.3333333333334" x2="208.0" y2="671.3333333333334" stroke="#7a6a45" stroke-width="3"/><line x1="352.0" y1="658.6666666666667" x2="208.0" y2="658.6666666666667" stroke="#7a6a45" stroke-width="3"/><line x1="352.0" y1="646.0" x2="208.0" y2="646.0" stroke="#7a6a45" stroke-width="3"/><line x1="352.0" y1="633.3333333333333" x2="208.0" y2="633.3333333333333" stroke="#7a6a45" stroke-width="3"/><line x1="352.0" y1="620.6666666666666" x2="208.0" y2="620.6666666666666" stroke="#7a6a45" stroke-width="3"/><line x1="352.0" y1="608.0" x2="208.0" y2="608.0" stroke="#7a6a45" stroke-width="3"/><line x1="352.0" y1="595.3333333333334" x2="208.0" y2="595.3333333333334" stroke="#7a6a45" stroke-width="3"/><line x1="352.0" y1="582.6666666666666" x2="208.0" y2="582.6666666666666" stroke="#7a6a45" stroke-width="3"/><line x1="352.0" y1="570.0" x2="208.0" y2="570.0" stroke="#7a6a45" stroke-width="3"/><line x1="352.0" y1="557.3333333333334" x2="208.0" y2="557.3333333333334" stroke="#7a6a45" stroke-width="3"/><line x1="352.0" y1="544.6666666666667" x2="208.0" y2="544.6666666666667" stroke="#7a6a45" stroke-width="3"/><line x1="352.0" y1="532.0" x2="208.0" y2="532.0" stroke="#7a6a45" stroke-width="3"/><line x1="352.0" y1="519.3333333333333" x2="208.0" y2="519.3333333333333" stroke="#7a6a45" stroke-width="3"/><line x1="352.0" y1="506.66666666666663" x2="208.0" y2="506.66666666666663" stroke="#7a6a45" stroke-width="3"/><line x1="352.0" y1="493.99999999999994" x2="208.0" y2="493.99999999999994" stroke="#7a6a45" stroke-width="3"/><line x1="352.0" y1="481.33333333333337" x2="208.0" y2="481.33333333333337" stroke="#7a6a45" stroke-width="3"/><line x1="352.0" y1="450.625" x2="208.0" y2="450.625" stroke="#7a6a45" stroke-width="3"/><line x1="352.0" y1="437.875" x2="208.0" y2="437.875" stroke="#7a6a45" stroke-width="3"/><line x1="352.0" y1="425.125" x2="208.0" y2="425.125" stroke="#7a6a45" stroke-width="3"/><line x1="352.0" y1="412.375" x2="208.0" y2="412.375" stroke="#7a6a45" stroke-width="3"/><line x1="352.0" y1="399.625" x2="208.0" y2="399.625" stroke="#7a6a45" stroke-width="3"/><line x1="352.0" y1="386.875" x2="208.0" y2="386.875" stroke="#7a6a45" stroke-width="3"/><line x1="352.0" y1="374.125" x2="208.0" y2="374.125" stroke="#7a6a45" stroke-width="3"/><line x1="352.0" y1="361.375" x2="208.0" y2="361.375" stroke="#7a6a45" stroke-width="3"/><line x1="352.0" y1="348.625" x2="208.0" y2="348.625" stroke="#7a6a45" stroke-width="3"/><line x1="352.0" y1="335.875" x2="208.0" y2="335.875" stroke="#7a6a45" stroke-width="3"/><line x1="352.0" y1="323.125" x2="208.0" y2="323.125" stroke="#7a6a45" stroke-width="3"/><line x1="352.0" y1="310.375" x2="208.0" y2="310.375" stroke="#7a6a45" stroke-width="3"/><line x1="352.0" y1="297.625" x2="208.0" y2="297.625" stroke="#7a6a45" stroke-width="3"/><line x1="352.0" y1="284.875" x2="208.0" y2="284.875" stroke="#7a6a45" stroke-width="3"/><line x1="352.0" y1="272.125" x2="208.0" y2="272.125" stroke="#7a6a45" stroke-width="3"/><line x1="352.0" y1="259.375" x2="208.0" y2="259.375" stroke="#7a6a45" stroke-width="3"/><line x1="352.0" y1="246.625" x2="208.0" y2="246.625" stroke="#7a6a45" stroke-width="3"/><line x1="352.0" y1="233.875" x2="208.0" y2="233.875" stroke="#7a6a45" stroke-width="3"/><line x1="352.0" y1="221.125" x2="208.0" y2="221.125" stroke="#7a6a45" stroke-width="3"/><line x1="352.0" y1="208.375" x2="208.0" y2="208.375" stroke="#7a6a45" stroke-width="3"/><line x1="349.4888507587845" y1="196.0" x2="208.0" y2="196.0" stroke="#7a6a45" stroke-width="3"/><line x1="348.55452579843785" y1="183.625" x2="208.0" y2="183.625" stroke="#7a6a45" stroke-width="3"/><line x1="346.6548254533637" y1="171.25" x2="208.0" y2="171.25" stroke="#7a6a45" stroke-width="3"/><line x1="343.7545208279286" y1="158.875" x2="208.0" y2="158.875" stroke="#7a6a45" stroke-width="3"/><line x1="339.7964191431586" y1="146.5" x2="208.0" y2="146.5" stroke="#7a6a45" stroke-width="3"/><line x1="334.6951541519978" y1="134.125" x2="208.0" y2="134.125" stroke="#7a6a45" stroke-width="3"/><line x1="328.3264633961928" y1="121.75" x2="208.0" y2="121.75" stroke="#7a6a45" stroke-width="3"/><line x1="320.508274290956" y1="109.375" x2="208.0" y2="109.375" stroke="#7a6a45" stroke-width="3"/><line x1="310.96531116971255" y1="97.0" x2="208.0" y2="97.0" stroke="#7a6a45" stroke-width="3"/><line x1="299.2562106423104" y1="84.625" x2="208.0" y2="84.625" stroke="#7a6a45" stroke-width="3"/><line x1="284.59967783451657" y1="72.25" x2="208.0" y2="72.25" stroke="#7a6a45" stroke-width="3"/><line x1="265.34628206544676" y1="59.875" x2="208.0" y2="59.875" stroke="#7a6a45" stroke-width="3"/><line x1="236.32114530673516" y1="47.5" x2="208.0" y2="47.5" stroke="#7a6a45" stroke-width="3"/><line x1="210.39999999999998" y1="703.0" x2="210.39999999999998" y2="47.125" stroke="#c9a227" stroke-width="1" stroke-dasharray="3 3"/><line x1="202.0" y1="730.0" x2="202.0" y2="40.0" stroke="#101418" stroke-width="2"/><line x1="202.0" y1="730.0" x2="202.0" y2="40.0" stroke="#c9a227" stroke-width="0.8" stroke-dasharray="2 3"/><text x="202.0" y="760.0" fill="#8a94a0" font-family="-apple-system" font-size="14" text-anchor="middle">full-arch leaves: center split to apex, louvers through the curve -- true scale 6px/in</text></svg>